<?xml version="1.0" standalone="no"?><!DOCTYPE svg PUBLIC "-//W3C//DTD SVG 1.1//EN" "http://www.w3.org/Graphics/SVG/1.1/DTD/svg11.dtd"><svg t="1630373847236" class="icon" viewBox="0 0 1363 1024" version="1.1" xmlns="http://www.w3.org/2000/svg" p-id="1562" xmlns:xlink="http://www.w3.org/1999/xlink" width="266.2109375" height="200"><defs><style type="text/css"></style></defs><path d="M1310.33799 896.864829l-16.98885 59.476891c-6.56315 22.915316-31.415047 41.670964-55.25886 41.670964H197.722197c-23.838508 0-48.69571-18.755648-55.253555-41.676269l-16.994155-59.471586h1184.863503z" fill="#E8D6BD" p-id="1563"></path><path d="M1180.295295 127.135171v231.195855c0 255.379233-207.039005 462.381098-462.39171 462.381098-132.239254 0-251.474238-55.513534-335.744663-144.495419H255.517181c-61.758342 0-119.813306-24.040124-163.479212-67.706031S24.326632 506.779192 24.326632 445.02085c0-61.758342 24.04543-119.813306 67.711337-163.479213S193.764145 213.835606 255.522487 213.835606V127.135171H342.217617v231.195855c0 207.145119 168.54085 375.685969 375.691274 375.685969 207.145119 0 375.685969-168.54085 375.685969-375.685969V127.135171h86.69513zM255.522487 589.521575H317.386943C278.03457 521.518425 255.522487 442.537782 255.522487 358.32572V300.536041c-38.609575 0-74.879337 15.025741-102.187772 42.307648-27.281907 27.308435-42.307648 63.578197-42.307648 102.187772 0 38.609575 15.025741 74.879337 42.334177 102.187772 27.281907 27.276601 63.546363 42.307648 102.161243 42.307648z" fill="#C8FEFF" p-id="1564"></path><path d="M1093.59486 213.835606v144.49542c0 207.145119-168.54085 375.685969-375.685969 375.685969-207.150425 0-375.691275-168.54085-375.691274-375.685969V213.830301c93.921492 0 93.921492 40.461264 187.842984 40.461264 93.926798 0 93.926798-40.455959 187.821762-40.455959 93.948021 0 93.948021 40.455959 187.869513 40.455959 93.921492 0 93.921492-40.455959 187.842984-40.455959z" fill="#BD9F79" p-id="1565"></path><path d="M1093.59486 127.135171v86.69513c-93.921492 0-93.921492 40.461264-187.842984 40.461264-93.926798 0-93.921492-40.455959-187.874819-40.455959-93.894964 0-93.894964 40.455959-187.816456 40.455959-93.926798 0-93.921492-40.455959-187.842984-40.455959V127.135171h751.377243z" fill="#F9EBDB" p-id="1566"></path><path d="M1093.59486 127.135171H342.217617c0-55.858404 45.284145-101.147855 101.147855-101.147855 26.501969 0 50.605762 10.20286 68.634528 26.878674a100.755233 100.755233 0 0 1 68.634528-26.878674c26.496663 0 50.600456 10.20286 68.634529 26.878674a100.755233 100.755233 0 0 1 68.634528-26.878674c26.501969 0 50.600456 10.20286 68.634529 26.878674a100.755233 100.755233 0 0 1 68.634528-26.878674c26.496663 0 50.600456 10.20286 68.634529 26.878674a100.755233 100.755233 0 0 1 68.634528-26.878674c55.869016 0 101.153161 45.289451 101.153161 101.147855z" fill="#FFFFFF" p-id="1567"></path><path d="M1339.238135 875.191047H96.574342a21.673782 21.673782 0 1 0 0 43.347564h12.547979l12.500228 43.750798c9.194777 32.184373 42.620684 57.397057 76.099648 57.397057H1238.084974c33.473658 0 66.899565-25.212684 76.099648-57.402362l12.500228-43.745493h12.542673a21.668477 21.668477 0 1 0 0.005306-43.347564z m-66.729783 75.181761c-3.883772 13.582591-20.288995 25.960788-34.418072 25.960788H197.722197c-14.129078 0-30.534301-12.372891-34.412767-25.960788l-9.099275-31.834197h1127.397472l-9.099275 31.834197zM255.522487 611.195358h61.864456a21.679088 21.679088 0 0 0 18.771565-32.523938c-38.577741-66.682031-58.962238-142.871876-58.962239-220.340394V300.530736a21.673782 21.673782 0 0 0-21.673782-21.668477c-44.387482 0-86.116808 17.280663-117.500021 48.663876-31.383212 31.388518-48.669181 73.117845-48.669181 117.50002 0 44.387482 17.285969 86.116808 48.674487 117.505327 31.383212 31.383212 73.112539 48.663876 117.494715 48.663876zM168.668187 358.171855c18.002238-18.002238 40.61513-29.727834 65.169906-34.078508v34.232373a484.627896 484.627896 0 0 0 47.608042 209.522073H255.522487a122.031088 122.031088 0 0 1-86.848995-35.972643 122.031088 122.031088 0 0 1-35.972642-86.8543 122.00456 122.00456 0 0 1 35.972642-86.848995z" fill="#700D00" p-id="1568"></path><path d="M255.522487 697.890487H372.937617c91.693098 93.263585 213.819689 144.49542 344.960663 144.49542 266.908518 0 484.060187-217.151668 484.060186-484.060187V127.140477a21.668477 21.668477 0 0 0-21.673782-21.673783h-66.97915C1103.039005 48.048415 1052.772808 4.313534 992.447005 4.313534a122.375959 122.375959 0 0 0-68.634528 20.968124A122.381264 122.381264 0 0 0 855.172642 4.313534c-24.676808 0-48.47287 7.348394-68.639834 20.968124A122.370653 122.370653 0 0 0 717.914197 4.313534a122.375959 122.375959 0 0 0-68.634529 20.968124A122.370653 122.370653 0 0 0 580.634528 4.313534 122.370653 122.370653 0 0 0 512 25.281658 122.370653 122.370653 0 0 0 443.370777 4.313534c-60.325803 0-110.592 43.729575-120.863834 101.147855H255.517181a21.673782 21.673782 0 0 0-21.673782 21.673782v65.933927c-59.370777 5.003275-114.518218 30.534301-157.12829 73.149679C28.953202 313.980684 2.65285 377.484601 2.65285 445.026155s26.300352 131.045472 74.062259 178.802073c47.767212 47.761907 111.265824 74.067565 178.802072 74.067565zM1071.910466 192.941762c-37.829637 2.743047-60.506197 12.463088-80.82172 21.212186-23.000207 9.905741-42.85944 18.463834-85.352787 18.463834s-62.35258-8.558093-85.352788-18.463834c-23.928705-10.308974-51.062052-21.992124-102.495503-21.992124-51.428145 0-78.561492 11.68315-102.495502 21.992124-22.994902 9.905741-42.848829 18.463834-85.342176 18.463834s-62.347275-8.558093-85.342177-18.463834c-20.315523-8.754404-42.992083-18.463834-80.82172-21.212186v-44.132809h708.029679v44.132809h-0.005306zM443.360166 47.661098a79.214093 79.214093 0 0 1 53.921824 21.116684 21.668477 21.668477 0 0 0 29.430715 0 79.208788 79.208788 0 0 1 53.921823-21.116684c20.039627 0 39.193202 7.502259 53.916519 21.116684a21.668477 21.668477 0 0 0 29.430715 0 79.198176 79.198176 0 0 1 53.921823-21.116684c20.050238 0 39.193202 7.502259 53.916519 21.116684a21.673782 21.673782 0 0 0 29.430715 0 79.214093 79.214093 0 0 1 53.916518-21.116684c20.044933 0 39.198508 7.502259 53.921824 21.116684a21.673782 21.673782 0 0 0 29.430715 0 79.208788 79.208788 0 0 1 53.916518-21.116684c36.312207 0 66.984456 24.485803 76.449824 57.800291H366.905036c9.465368-33.314487 40.142922-57.794984 76.45513-57.794985zM107.37144 296.875109c39.569907-39.575212 92.181223-61.36572 148.151047-61.36572a21.673782 21.673782 0 0 0 21.673782-21.673783V148.814259h43.347565v209.516767c0 219.104166 178.255585 397.359751 397.365057 397.359751 90.425036 0 175.692933-29.727834 246.577078-85.973554a21.673782 21.673782 0 0 0-26.947648-33.956477c-63.137824 50.096415-139.088912 76.582466-219.634736 76.582466-195.20199 0-354.012187-158.810197-354.012186-354.012186V236.363606c28.364269 2.398176 44.976415 9.555565 63.668394 17.604311 23.928705 10.31428 51.062052 21.99743 102.490197 21.99743s78.556187-11.688456 102.495502-21.99743c22.994902-9.905741 42.854135-18.463834 85.342176-18.463834 42.498653 0 62.35258 8.558093 85.352788 18.463834 23.93401 10.31428 51.067358 21.99743 102.500808 21.99743 51.428145 0 78.561492-11.688456 102.495503-21.992124 18.691979-8.054052 35.30943-15.21144 63.679005-17.609617v121.96742c0 80.540518-26.486052 156.486301-76.587772 219.62943a21.679088 21.679088 0 0 0 33.956477 26.947648c56.24572-70.884145 85.97886-156.146736 85.97886-246.577078v-209.522073h43.35287v209.522073c0 243.006342-197.700974 440.712622-440.712622 440.712622-122.253927 0-235.907316-48.913244-320.018569-137.725347a21.663171 21.663171 0 0 0-15.736705-6.770073H255.517181c-55.959212 0-108.570528-21.795813-148.145741-61.371026C67.790922 553.60199 46.000415 500.990674 46.000415 445.026155c0-55.964518 21.790508-108.575834 61.36572-148.151046z" fill="#700D00" p-id="1569"></path></svg>